<svg width="44" height="64" viewBox="0 0 44 64" fill="none" xmlns="http://www.w3.org/2000/svg">
<path d="M21.03 51.23C19.128 51.23 17.503 51.834 16.158 53.039C14.814 54.243 14.138 55.701 14.138 57.42C14.138 59.357 14.818 60.877 16.176 61.983C17.538 63.089 19.124 63.647 20.937 63.647C22.78 63.647 24.388 63.097 25.764 62.006C27.139 60.91 27.826 59.383 27.826 57.419C27.826 55.7 27.169 54.242 25.854 53.038C24.539 51.835 22.933 51.23 21.027 51.23" fill="#BE212F"/>
<path d="M40.458 8.617C38.708 5.961 36.207 3.837 33.02 2.298C29.851 0.773 26.16 0 22.046 0C17.617 0 13.675 0.926 10.335 2.753C6.991 4.583 4.407 6.931 2.655 9.731C0.895 12.545 0 15.375 0 18.145C0 19.622 0.616 21.001 1.824 22.241C3.038 23.489 4.548 24.12 6.312 24.12C9.322 24.12 11.373 22.354 12.417 18.89C13.368 16.025 14.541 13.84 15.897 12.392C17.173 11.028 19.243 10.336 22.046 10.336C24.464 10.336 26.372 11.014 27.886 12.411C29.377 13.789 30.103 15.431 30.103 17.431C30.103 18.441 29.867 19.348 29.394 20.206C28.891 21.106 28.264 21.933 27.531 22.669C26.756 23.445 25.477 24.61 23.729 26.142C21.693 27.927 20.05 29.49 18.854 30.788C17.604 32.137 16.591 33.723 15.834 35.5C15.078 37.289 14.694 39.424 14.694 41.849C14.694 43.918 15.271 45.52 16.411 46.611C17.539 47.691 18.944 48.241 20.589 48.241C23.734 48.241 25.71 46.522 26.298 43.306C26.596 41.969 26.822 41.035 26.972 40.504C27.108 40.021 27.305 39.525 27.558 39.03C27.804 38.548 28.193 38.002 28.718 37.405C29.265 36.774 30.004 36.034 30.91 35.207C34.299 32.177 36.69 29.985 38.016 28.687C39.384 27.35 40.577 25.741 41.562 23.909C42.576 22.034 43.09 19.825 43.09 17.35C43.092 14.219 42.203 11.278 40.453 8.613" fill="#BE212F"/>
</svg>
