<svg width="12" height="12" viewBox="0 0 12 12" fill="none" xmlns="http://www.w3.org/2000/svg">
<path d="M5 1C4.37428 1.00033 3.75737 1.14746 3.19885 1.42954C2.64032 1.71163 2.15577 2.12081 1.78413 2.6242C1.41248 3.1276 1.16412 3.71115 1.05899 4.32798C0.953869 4.9448 0.994917 5.57768 1.17884 6.17576C1.36276 6.77383 1.68443 7.32042 2.11798 7.77158C2.55154 8.22275 3.08489 8.56591 3.67518 8.77348C4.26546 8.98106 4.89621 9.04726 5.51672 8.96676C6.13724 8.88627 6.73022 8.66132 7.248 8.31L9.72 10.78C9.78866 10.8537 9.87146 10.9128 9.96346 10.9538C10.0555 10.9948 10.1548 11.0168 10.2555 11.0186C10.3562 11.0204 10.4562 11.0018 10.5496 10.9641C10.643 10.9264 10.7278 10.8703 10.799 10.799C10.8703 10.7278 10.9264 10.643 10.9641 10.5496C11.0018 10.4562 11.0204 10.3562 11.0186 10.2555C11.0168 10.1548 10.9948 10.0555 10.9538 9.96346C10.9128 9.87146 10.8537 9.78866 10.78 9.72L8.31 7.248C8.71863 6.64658 8.95561 5.94515 8.99544 5.21914C9.03528 4.49312 8.87646 3.76998 8.53608 3.12746C8.19569 2.48495 7.68661 1.94736 7.06357 1.57252C6.44054 1.19767 5.72711 0.999736 5 1V1ZM2.5 5C2.5 4.33696 2.76339 3.70107 3.23223 3.23223C3.70107 2.76339 4.33696 2.5 5 2.5C5.66304 2.5 6.29892 2.76339 6.76777 3.23223C7.23661 3.70107 7.5 4.33696 7.5 5C7.5 5.66304 7.23661 6.29893 6.76777 6.76777C6.29892 7.23661 5.66304 7.5 5 7.5C4.33696 7.5 3.70107 7.23661 3.23223 6.76777C2.76339 6.29893 2.5 5.66304 2.5 5Z" fill="#C0C0C0"/>
</svg>
