<svg width="16" height="16" viewBox="0 0 16 16" fill="none" xmlns="http://www.w3.org/2000/svg">
<path d="M1.293 1.29302C1.48053 1.10555 1.73484 1.00023 2 1.00023C2.26516 1.00023 2.51947 1.10555 2.707 1.29302L8 6.58602L13.293 1.29302C13.3852 1.19751 13.4956 1.12133 13.6176 1.06892C13.7396 1.01651 13.8708 0.988924 14.0036 0.98777C14.1364 0.986616 14.2681 1.01192 14.391 1.0622C14.5139 1.11248 14.6255 1.18673 14.7194 1.28063C14.8133 1.37452 14.8875 1.48617 14.9378 1.60907C14.9881 1.73196 15.0134 1.86364 15.0123 1.99642C15.0111 2.1292 14.9835 2.26042 14.9311 2.38242C14.8787 2.50443 14.8025 2.61477 14.707 2.70702L9.414 8.00002L14.707 13.293C14.8892 13.4816 14.99 13.7342 14.9877 13.9964C14.9854 14.2586 14.8802 14.5094 14.6948 14.6948C14.5094 14.8802 14.2586 14.9854 13.9964 14.9877C13.7342 14.99 13.4816 14.8892 13.293 14.707L8 9.41402L2.707 14.707C2.5184 14.8892 2.2658 14.99 2.0036 14.9877C1.7414 14.9854 1.49059 14.8802 1.30518 14.6948C1.11977 14.5094 1.0146 14.2586 1.01233 13.9964C1.01005 13.7342 1.11084 13.4816 1.293 13.293L6.586 8.00002L1.293 2.70702C1.10553 2.51949 1.00021 2.26518 1.00021 2.00002C1.00021 1.73486 1.10553 1.48055 1.293 1.29302V1.29302Z" fill="#FF0000"/>
</svg>
